<svg xmlns="http://www.w3.org/2000/svg" width="641" height="393" viewBox="0 0 641 393">
  <path
    d="M481 2644c-37-26-54-77-39-114 7-17 236-270 508-561 272-292 495-537 495-543 0-7-229-239-510-516-280-277-515-513-522-525-36-60 15-145 87-145 25 0 499 189 588 234 439 223 669 722 562 1217-63 293-252 554-507 700-106 60-580 269-612 269-15 0-37-7-50-16zm436-307c68-31 155-77 194-103 170-113 303-288 368-484 24-74 42-162 32-158-6 2-675 718-745 796l-21 23 25-9c14-6 80-35 147-65zm578-1138c-58-222-212-431-407-553-71-44-345-162-355-153-2 3 171 176 384 385s389 380 390 378c1-1-4-27-12-57zM2283 2220c-56-12-96-33-139-77-61-61-85-128-98-271l-11-126-35-8c-19-5-52-14-72-19l-38-10v-129h150V850h190v730h280v170h-282l3 113c4 95 7 117 27 149 39 63 115 80 227 52l26-6-3 68-3 69-35 11c-52 18-139 24-187 14zM4528 1868l-3-122-62-18-63-19v-129h130v-237c0-321 14-396 87-465 58-55 155-72 270-48 74 16 74 16 54 89l-18 64-71-2c-68-2-74-1-102 28l-30 29v542h240v170h-240v240h-189l-3-122z"
    transform="matrix(.1 0 0 -.1 0 393)"
    fill="currentColor"
  ></path>
  <path
    d="M388 1823c-86-9-105-113-27-141 13-5 120-6 237-3 209 6 214 7 233 30 27 34 24 75-7 100-25 20-38 21-213 19-102-1-203-3-223-5zM2921 1754c-80-21-144-60-205-124-225-236-161-619 129-761 66-32 74-34 180-34 100 0 115 2 161 27 27 14 64 40 81 56l32 29 11-49 12-48h158v900h-156l-13-50-13-50-45 40c-81 71-212 96-332 64zm226-184c195-112 189-448-11-553-57-30-155-29-212 0-50 27-100 82-128 142-32 71-30 207 5 281 49 106 128 159 234 160 48 0 70-6 112-30zM5445 1757c-55-18-106-45-133-70l-22-21-17 42-16 42h-147V850h180v283c0 163 4 298 10 319 41 145 265 198 367 87 44-48 47-70 51-386l4-303h169l-3 333-3 332-26 55c-58 123-157 189-295 196-50 2-94-1-119-9zM3843 1746c-86-28-158-89-192-166-28-61-26-115 4-177 42-84 111-126 287-173 133-37 178-65 178-113 0-88-122-141-242-105-35 10-90 58-100 88-4 13-158-53-158-68 0-25 70-110 113-139 164-109 420-73 526 74 74 102 69 225-13 301-64 59-121 84-308 136-71 20-118 58-118 95 0 111 210 139 268 36 9-17 18-32 19-34 2-2 39 4 83 14 88 20 91 24 61 83-28 54-78 101-141 131-66 31-198 39-267 17zM297 1500l-249-5-24-28c-26-31-30-54-13-90 22-48 34-49 487-42l422 8 25 23c41 38 33 104-16 129-30 16-109 17-632 5zM432 1161c-72-5-86-9-103-30-22-27-23-41-8-74 20-44 45-48 272-41 195 6 214 8 235 27 32 29 30 79-4 106-24 19-39 21-168 19-77-1-179-4-224-7z"
    transform="matrix(.1 0 0 -.1 0 393)"
    fill="currentColor"
  ></path>
</svg>

